<mxfile host="app.diagrams.net" agent="Mozilla/5.0 (Windows NT 10.0; Win64; x64; rv:130.0) Gecko/20100101 Firefox/130.0" version="24.7.16" pages="2">
  <diagram name="第 1 页" id="OxpAVUQstTyfO5xzEEih">
    <mxGraphModel dx="1588" dy="970" grid="1" gridSize="10" guides="1" tooltips="1" connect="1" arrows="1" fold="1" page="1" pageScale="1" pageWidth="827" pageHeight="1169" math="0" shadow="0">
      <root>
        <mxCell id="0" />
        <mxCell id="1" parent="0" />
        <mxCell id="ynMyA59LQ0QFr9QhABbU-4" style="edgeStyle=orthogonalEdgeStyle;rounded=0;orthogonalLoop=1;jettySize=auto;html=1;entryX=0.5;entryY=0;entryDx=0;entryDy=0;endArrow=block;endFill=1;" edge="1" parent="1" source="ynMyA59LQ0QFr9QhABbU-2" target="ynMyA59LQ0QFr9QhABbU-3">
          <mxGeometry relative="1" as="geometry" />
        </mxCell>
        <mxCell id="ynMyA59LQ0QFr9QhABbU-2" value="开始" style="rounded=1;whiteSpace=wrap;html=1;" vertex="1" parent="1">
          <mxGeometry x="280" y="40" width="120" height="60" as="geometry" />
        </mxCell>
        <mxCell id="ynMyA59LQ0QFr9QhABbU-6" value="" style="edgeStyle=orthogonalEdgeStyle;shape=connector;rounded=0;orthogonalLoop=1;jettySize=auto;html=1;strokeColor=default;align=center;verticalAlign=middle;fontFamily=Helvetica;fontSize=11;fontColor=default;labelBackgroundColor=default;endArrow=block;endFill=1;" edge="1" parent="1" source="ynMyA59LQ0QFr9QhABbU-3" target="ynMyA59LQ0QFr9QhABbU-5">
          <mxGeometry relative="1" as="geometry" />
        </mxCell>
        <mxCell id="ynMyA59LQ0QFr9QhABbU-7" value="否" style="edgeLabel;html=1;align=center;verticalAlign=middle;resizable=0;points=[];fontFamily=Helvetica;fontSize=11;fontColor=default;labelBackgroundColor=default;" vertex="1" connectable="0" parent="ynMyA59LQ0QFr9QhABbU-6">
          <mxGeometry x="0.56" y="1" relative="1" as="geometry">
            <mxPoint x="-1" y="-9" as="offset" />
          </mxGeometry>
        </mxCell>
        <mxCell id="ynMyA59LQ0QFr9QhABbU-19" value="" style="edgeStyle=orthogonalEdgeStyle;shape=connector;rounded=0;orthogonalLoop=1;jettySize=auto;html=1;strokeColor=default;align=center;verticalAlign=middle;fontFamily=Helvetica;fontSize=11;fontColor=default;labelBackgroundColor=default;endArrow=block;endFill=1;" edge="1" parent="1" source="ynMyA59LQ0QFr9QhABbU-3" target="ynMyA59LQ0QFr9QhABbU-18">
          <mxGeometry relative="1" as="geometry" />
        </mxCell>
        <mxCell id="ynMyA59LQ0QFr9QhABbU-23" value="是" style="edgeLabel;html=1;align=center;verticalAlign=middle;resizable=0;points=[];fontFamily=Helvetica;fontSize=11;fontColor=default;labelBackgroundColor=default;" vertex="1" connectable="0" parent="ynMyA59LQ0QFr9QhABbU-19">
          <mxGeometry x="0.0709" y="-1" relative="1" as="geometry">
            <mxPoint as="offset" />
          </mxGeometry>
        </mxCell>
        <mxCell id="ynMyA59LQ0QFr9QhABbU-3" value="&lt;div&gt;是否在ZigBee&lt;/div&gt;&lt;div&gt;组网范围内&lt;/div&gt;" style="rhombus;whiteSpace=wrap;html=1;" vertex="1" parent="1">
          <mxGeometry x="280" y="130" width="120" height="80" as="geometry" />
        </mxCell>
        <mxCell id="ynMyA59LQ0QFr9QhABbU-9" value="" style="edgeStyle=orthogonalEdgeStyle;shape=connector;rounded=0;orthogonalLoop=1;jettySize=auto;html=1;strokeColor=default;align=center;verticalAlign=middle;fontFamily=Helvetica;fontSize=11;fontColor=default;labelBackgroundColor=default;endArrow=block;endFill=1;" edge="1" parent="1" source="ynMyA59LQ0QFr9QhABbU-5" target="ynMyA59LQ0QFr9QhABbU-8">
          <mxGeometry relative="1" as="geometry" />
        </mxCell>
        <mxCell id="ynMyA59LQ0QFr9QhABbU-5" value="&lt;div&gt;使用4G通讯&lt;/div&gt;" style="whiteSpace=wrap;html=1;" vertex="1" parent="1">
          <mxGeometry x="280" y="240" width="120" height="60" as="geometry" />
        </mxCell>
        <mxCell id="ynMyA59LQ0QFr9QhABbU-11" value="" style="edgeStyle=orthogonalEdgeStyle;shape=connector;rounded=0;orthogonalLoop=1;jettySize=auto;html=1;strokeColor=default;align=center;verticalAlign=middle;fontFamily=Helvetica;fontSize=11;fontColor=default;labelBackgroundColor=default;endArrow=block;endFill=1;" edge="1" parent="1" source="ynMyA59LQ0QFr9QhABbU-8" target="ynMyA59LQ0QFr9QhABbU-10">
          <mxGeometry relative="1" as="geometry" />
        </mxCell>
        <mxCell id="ynMyA59LQ0QFr9QhABbU-12" value="是" style="edgeLabel;html=1;align=center;verticalAlign=middle;resizable=0;points=[];fontFamily=Helvetica;fontSize=11;fontColor=default;labelBackgroundColor=default;" vertex="1" connectable="0" parent="ynMyA59LQ0QFr9QhABbU-11">
          <mxGeometry x="0.0566" relative="1" as="geometry">
            <mxPoint as="offset" />
          </mxGeometry>
        </mxCell>
        <mxCell id="ynMyA59LQ0QFr9QhABbU-16" value="" style="edgeStyle=orthogonalEdgeStyle;shape=connector;rounded=0;orthogonalLoop=1;jettySize=auto;html=1;strokeColor=default;align=center;verticalAlign=middle;fontFamily=Helvetica;fontSize=11;fontColor=default;labelBackgroundColor=default;endArrow=block;endFill=1;" edge="1" parent="1" source="ynMyA59LQ0QFr9QhABbU-8" target="ynMyA59LQ0QFr9QhABbU-15">
          <mxGeometry relative="1" as="geometry" />
        </mxCell>
        <mxCell id="ynMyA59LQ0QFr9QhABbU-17" value="否" style="edgeLabel;html=1;align=center;verticalAlign=middle;resizable=0;points=[];fontFamily=Helvetica;fontSize=11;fontColor=default;labelBackgroundColor=default;" vertex="1" connectable="0" parent="ynMyA59LQ0QFr9QhABbU-16">
          <mxGeometry x="-0.0857" y="-2" relative="1" as="geometry">
            <mxPoint x="2" y="61" as="offset" />
          </mxGeometry>
        </mxCell>
        <mxCell id="ynMyA59LQ0QFr9QhABbU-8" value="是否接收命令" style="rhombus;whiteSpace=wrap;html=1;" vertex="1" parent="1">
          <mxGeometry x="280" y="320" width="120" height="80" as="geometry" />
        </mxCell>
        <mxCell id="ynMyA59LQ0QFr9QhABbU-14" value="" style="edgeStyle=orthogonalEdgeStyle;shape=connector;rounded=0;orthogonalLoop=1;jettySize=auto;html=1;strokeColor=default;align=center;verticalAlign=middle;fontFamily=Helvetica;fontSize=11;fontColor=default;labelBackgroundColor=default;endArrow=block;endFill=1;" edge="1" parent="1" source="ynMyA59LQ0QFr9QhABbU-10" target="ynMyA59LQ0QFr9QhABbU-13">
          <mxGeometry relative="1" as="geometry" />
        </mxCell>
        <mxCell id="ynMyA59LQ0QFr9QhABbU-10" value="接收4G命令" style="whiteSpace=wrap;html=1;" vertex="1" parent="1">
          <mxGeometry x="280" y="430" width="120" height="60" as="geometry" />
        </mxCell>
        <mxCell id="ynMyA59LQ0QFr9QhABbU-25" style="edgeStyle=orthogonalEdgeStyle;shape=connector;rounded=0;orthogonalLoop=1;jettySize=auto;html=1;entryX=0.5;entryY=0;entryDx=0;entryDy=0;strokeColor=default;align=center;verticalAlign=middle;fontFamily=Helvetica;fontSize=11;fontColor=default;labelBackgroundColor=default;endArrow=block;endFill=1;" edge="1" parent="1" source="ynMyA59LQ0QFr9QhABbU-13" target="ynMyA59LQ0QFr9QhABbU-24">
          <mxGeometry relative="1" as="geometry">
            <Array as="points">
              <mxPoint x="340" y="610" />
              <mxPoint x="500" y="610" />
            </Array>
          </mxGeometry>
        </mxCell>
        <mxCell id="ynMyA59LQ0QFr9QhABbU-13" value="执行命令" style="whiteSpace=wrap;html=1;" vertex="1" parent="1">
          <mxGeometry x="280" y="520" width="120" height="60" as="geometry" />
        </mxCell>
        <mxCell id="ynMyA59LQ0QFr9QhABbU-26" style="edgeStyle=orthogonalEdgeStyle;shape=connector;rounded=0;orthogonalLoop=1;jettySize=auto;html=1;strokeColor=default;align=center;verticalAlign=middle;fontFamily=Helvetica;fontSize=11;fontColor=default;labelBackgroundColor=default;endArrow=block;endFill=1;" edge="1" parent="1" source="ynMyA59LQ0QFr9QhABbU-15">
          <mxGeometry relative="1" as="geometry">
            <mxPoint x="500" y="630" as="targetPoint" />
          </mxGeometry>
        </mxCell>
        <mxCell id="ynMyA59LQ0QFr9QhABbU-15" value="4G组网通讯" style="whiteSpace=wrap;html=1;" vertex="1" parent="1">
          <mxGeometry x="440" y="520" width="120" height="60" as="geometry" />
        </mxCell>
        <mxCell id="ynMyA59LQ0QFr9QhABbU-27" style="edgeStyle=orthogonalEdgeStyle;shape=connector;rounded=0;orthogonalLoop=1;jettySize=auto;html=1;strokeColor=default;align=center;verticalAlign=middle;fontFamily=Helvetica;fontSize=11;fontColor=default;labelBackgroundColor=default;endArrow=block;endFill=1;" edge="1" parent="1" source="ynMyA59LQ0QFr9QhABbU-18" target="ynMyA59LQ0QFr9QhABbU-24">
          <mxGeometry relative="1" as="geometry">
            <Array as="points">
              <mxPoint x="640" y="610" />
              <mxPoint x="500" y="610" />
            </Array>
          </mxGeometry>
        </mxCell>
        <mxCell id="ynMyA59LQ0QFr9QhABbU-18" value="ZigBee组网通讯" style="whiteSpace=wrap;html=1;" vertex="1" parent="1">
          <mxGeometry x="580" y="140" width="120" height="60" as="geometry" />
        </mxCell>
        <mxCell id="ynMyA59LQ0QFr9QhABbU-29" value="" style="edgeStyle=orthogonalEdgeStyle;shape=connector;rounded=0;orthogonalLoop=1;jettySize=auto;html=1;strokeColor=default;align=center;verticalAlign=middle;fontFamily=Helvetica;fontSize=11;fontColor=default;labelBackgroundColor=default;endArrow=block;endFill=1;" edge="1" parent="1" source="ynMyA59LQ0QFr9QhABbU-24" target="ynMyA59LQ0QFr9QhABbU-28">
          <mxGeometry relative="1" as="geometry" />
        </mxCell>
        <mxCell id="ynMyA59LQ0QFr9QhABbU-24" value="设备状态更新" style="whiteSpace=wrap;html=1;" vertex="1" parent="1">
          <mxGeometry x="440" y="630" width="120" height="60" as="geometry" />
        </mxCell>
        <mxCell id="ynMyA59LQ0QFr9QhABbU-28" value="结束" style="rounded=1;whiteSpace=wrap;html=1;" vertex="1" parent="1">
          <mxGeometry x="440" y="720" width="120" height="60" as="geometry" />
        </mxCell>
      </root>
    </mxGraphModel>
  </diagram>
  <diagram id="sqzNjO5SqX2Q5HfegudS" name="第 2 页">
    <mxGraphModel dx="794" dy="513" grid="1" gridSize="10" guides="1" tooltips="1" connect="1" arrows="1" fold="1" page="1" pageScale="1" pageWidth="1654" pageHeight="1169" math="0" shadow="0">
      <root>
        <mxCell id="0" />
        <mxCell id="1" parent="0" />
        <mxCell id="BLM2tfQAKpvCitbo9I7q-7" value="" style="rounded=0;whiteSpace=wrap;html=1;" vertex="1" parent="1">
          <mxGeometry x="220" y="100" width="450" height="180" as="geometry" />
        </mxCell>
        <mxCell id="BLM2tfQAKpvCitbo9I7q-1" value="主控&lt;br&gt;STM32F407VGT6" style="rounded=0;whiteSpace=wrap;html=1;" vertex="1" parent="1">
          <mxGeometry x="350" y="110" width="190" height="160" as="geometry" />
        </mxCell>
        <mxCell id="BLM2tfQAKpvCitbo9I7q-2" value="电源" style="rounded=0;whiteSpace=wrap;html=1;" vertex="1" parent="1">
          <mxGeometry x="230" y="110" width="100" height="60" as="geometry" />
        </mxCell>
        <mxCell id="BLM2tfQAKpvCitbo9I7q-4" value="接口" style="rounded=0;whiteSpace=wrap;html=1;" vertex="1" parent="1">
          <mxGeometry x="230" y="210" width="100" height="60" as="geometry" />
        </mxCell>
        <mxCell id="BLM2tfQAKpvCitbo9I7q-5" value="4GCAT1" style="rounded=0;whiteSpace=wrap;html=1;" vertex="1" parent="1">
          <mxGeometry x="560" y="110" width="100" height="60" as="geometry" />
        </mxCell>
        <mxCell id="BLM2tfQAKpvCitbo9I7q-6" value="CC2530" style="rounded=0;whiteSpace=wrap;html=1;" vertex="1" parent="1">
          <mxGeometry x="560" y="210" width="100" height="60" as="geometry" />
        </mxCell>
      </root>
    </mxGraphModel>
  </diagram>
</mxfile>
